<?xml version="1.0" encoding="UTF-8" standalone="no"?>
<!-- Uploaded to: SVG Repo, www.svgrepo.com, Transformed by: SVG Repo Mixer Tools -->

<svg
   height="800px"
   width="800px"
   version="1.1"
   id="Layer_1"
   viewBox="0 0 493.6 493.6"
   xml:space="preserve"
   fill="#FF9066"
   sodipodi:docname="send-svgrepo-com.svg"
   inkscape:version="1.4 (e7c3feb1, 2024-10-09)"
   xmlns:inkscape="http://www.inkscape.org/namespaces/inkscape"
   xmlns:sodipodi="http://sodipodi.sourceforge.net/DTD/sodipodi-0.dtd"
   xmlns="http://www.w3.org/2000/svg"
   xmlns:svg="http://www.w3.org/2000/svg"><defs
   id="defs4" /><sodipodi:namedview
   id="namedview4"
   pagecolor="#505050"
   bordercolor="#eeeeee"
   borderopacity="1"
   inkscape:showpageshadow="0"
   inkscape:pageopacity="0"
   inkscape:pagecheckerboard="0"
   inkscape:deskcolor="#505050"
   inkscape:zoom="0.41287245"
   inkscape:cx="303.96797"
   inkscape:cy="411.74944"
   inkscape:window-width="1280"
   inkscape:window-height="739"
   inkscape:window-x="0"
   inkscape:window-y="34"
   inkscape:window-maximized="0"
   inkscape:current-layer="Layer_1" />

<g
   id="SVGRepo_bgCarrier"
   stroke-width="0" />

<g
   id="SVGRepo_tracerCarrier"
   stroke-linecap="round"
   stroke-linejoin="round" />

<g
   id="SVGRepo_iconCarrier"> <path
   style="fill:#FFF8EF;"
   d="M397.6,135.6c-3.2,2.4-8,2.4-11.2-0.8c-0.8-0.8-1.6-1.6-1.6-3.2c-1.6-4-0.8-8,3.2-10.4L442.4,82 L31.2,186l139.2,91.2l136.8-98.4c1.6-0.8,3.2-1.6,4.8-1.6c2.4,0,4.8,0.8,6.4,2.4l0,0c4,4,3.2,10.4-0.8,13.6l-134.4,96L288,415.6 l171.2-324L397.6,135.6z M372,154l-28.8,20.8c-3.2,2.4-8,2.4-11.2-0.8l0,0c-0.8-0.8-1.6-1.6-1.6-3.2c-1.6-4-0.8-8,3.2-10.4 l28.8-20.8c1.6-0.8,3.2-1.6,4.8-1.6c2.4,0,4.8,0.8,6.4,2.4l0,0C376.8,144.4,376,150.8,372,154z"
   id="path1" /> <polygon
   style="fill:#E4C6A1;"
   points="175.2,306.8 214.4,354 157.6,378.8 "
   id="polygon1" /> <g
   id="g3"> <path
   style="fill:#FF9066;"
   d="M372.8,140.4L372.8,140.4c4,4,3.2,10.4-0.8,13.6l-28.8,20.8c-3.2,2.4-8,2.4-11.2-0.8l0,0 c-0.8-0.8-1.6-1.6-1.6-3.2c-1.6-4-0.8-8,3.2-10.4l28.8-20.8c1.6-0.8,3.2-1.6,4.8-1.6C368.8,138,371.2,138.8,372.8,140.4z"
   id="path2" /> <path
   style="fill:#FF9066;"
   d="M214.4,354l-39.2-47.2l-16.8,72L214.4,354z M459.2,90.8l-62.4,44.8c-3.2,2.4-8,2.4-11.2-0.8 c-0.8-0.8-1.6-1.6-1.6-3.2c-1.6-4,0-8,3.2-10.4L441.6,82L30.4,186l139.2,91.2l136.8-98.4c1.6-0.8,3.2-1.6,4.8-1.6 c2.4,0,4.8,0.8,6.4,2.4l0,0c4,4,3.2,10.4-0.8,13.6l-134.4,96L288,415.6L459.2,90.8z M492.8,58.8c0.8,1.6,0.8,2.4,0.8,4 c0,0.8,0,1.6-0.8,2.4l0,0c0,0,0,0.8-0.8,0.8L297.6,435.6c-1.6,2.4-4,4-7.2,4.8h-0.8c-2.4,0-4.8-0.8-6.4-3.2l-57.6-68.8L148,402.8 c-3.2,1.6-6.4,0.8-8.8-1.6c-2.4-2.4-4-5.6-3.2-8.8l24-100.8L4,189.2c-2.4-1.6-4-4.8-4-8.8c0.8-3.2,3.2-6.4,6.4-7.2l476-120 c0.8,0,1.6,0,2.4,0c1.6,0,2.4,0,3.2,0.8c0.8,0,0.8,0.8,1.6,0.8c0.8,0.8,2.4,1.6,2.4,3.2C492.8,58,492.8,58.8,492.8,58.8z"
   id="path3" /> </g> <g
   id="g4"> <path
   style="fill:#D9CDC1;"
   d="M441.6,82l-238.4,60c36-7.2,145.6-22.4,195.2-29.6L441.6,82z"
   id="path4" /> <polygon
   style="fill:#D9CDC1;"
   points="459.2,90.8 419.2,119.6 310.4,373.2 "
   id="polygon4" /> </g> </g>

<circle
   style="fill:none;fill-opacity:0.501961;stroke:#ff9066;stroke-width:17.893;stroke-dasharray:none;stroke-opacity:1"
   id="path5"
   cx="385.48947"
   cy="410.60645"
   r="70.163315" /><path
   style="fill:none;fill-opacity:0.501961;stroke:#ff9066;stroke-width:16.4163;stroke-linecap:round;stroke-dasharray:none;stroke-opacity:1"
   d="m 384.05608,366.43695 c 0,10.10516 0,32.32631 0,47.99735"
   id="path6" /><path
   style="fill:none;fill-opacity:0.501961;stroke:#ff9066;stroke-width:15.333067;stroke-linecap:round;stroke-dasharray:none;stroke-opacity:1"
   d="m 416.18396,446.40027 c -6.72622,-6.3721 -21.51712,-20.38427 -31.94812,-30.2661"
   id="path6-6" /></svg>
