<!DOCTYPE svg PUBLIC "-//W3C//DTD SVG 1.1//EN" "http://www.w3.org/Graphics/SVG/1.1/DTD/svg11.dtd">
<!-- Uploaded to: SVG Repo, www.svgrepo.com, Transformed by: SVG Repo Mixer Tools -->
<svg fill="#ffffff" width="800px" height="800px" viewBox="0 0 24 24" xmlns="http://www.w3.org/2000/svg">
<g id="SVGRepo_bgCarrier" stroke-width="0"/>
<g id="SVGRepo_tracerCarrier" stroke-linecap="round" stroke-linejoin="round"/>
<g id="SVGRepo_iconCarrier">
<path d="M4,20H20a1,1,0,0,1,0,2H4a1,1,0,0,1,0-2Zm9-3V5.414l2.293,2.293a1,1,0,0,0,1.414-1.414l-4-4a1,1,0,0,0-.325-.216.986.986,0,0,0-.764,0,1,1,0,0,0-.325.216l-4,4A1,1,0,1,0,8.707,7.707L11,5.414V17a1,1,0,0,0,2,0Z"/>
</g>
</svg>